<!--?xml version="1.0" standalone="no"?-->

<svg xmlns="http://www.w3.org/2000/svg" width="300.000000pt" height="300.000000pt" viewBox="0 0 300.000000 300.000000" preserveAspectRatio="xMidYMid meet">
<g transform="translate(0.000000,300.000000) scale(0.100000,-0.100000)" fill="#060606" stroke="none">
<path style="position: relative;" d="M1669 2980 c-29 -15 -39 -28 -48 -64 -6 -25 -11 -56 -11 -69 0 -36
-11 -39 -36 -12 -49 53 -102 39 -147 -38 -28 -47 -63 -196 -72 -305 -3 -40
-13 -94 -20 -120 -14 -46 -38 -223 -50 -372 -3 -41 -12 -111 -20 -155 -8 -44
-17 -116 -20 -160 -8 -103 -23 -189 -41 -243 -17 -51 -18 -65 -3 -57 10 7 104
-23 97 -30 -2 -2 -26 1 -53 6 -28 6 -62 11 -77 13 -40 3 -44 9 -131 196 -85
183 -179 270 -291 270 -47 0 -57 -4 -75 -26 -27 -35 -26 -70 3 -124 58 -106
86 -169 100 -222 8 -32 30 -86 49 -120 38 -69 97 -242 97 -286 0 -62 77 -160
314 -401 103 -105 151 -147 181 -158 38 -13 101 -13 138 2 9 4 17 3 17 -3 0
-23 -132 -33 -168 -13 -12 6 -22 11 -24 11 -2 0 -3 -39 -3 -87 0 -49 -4 -161
-8 -250 l-8 -163 382 0 382 0 -7 62 c-30 295 -17 398 68 573 75 152 80 167
112 301 28 117 28 126 30 449 1 182 5 429 9 550 8 235 -4 411 -31 452 -16 26
-53 38 -83 28 -38 -12 -45 -42 -42 -182 2 -109 -2 -155 -23 -262 -35 -176 -42
-193 -72 -173 -37 24 -41 75 -18 192 14 68 15 97 5 202 -7 68 -16 184 -22 258
-10 141 -42 345 -61 393 -19 50 -60 59 -121 28 -20 -10 -39 -16 -41 -12 -2 3
-7 26 -11 50 -14 83 -71 111 -146 71z m160 -439 c13 -125 14 -201 2 -201 -12
0 -21 60 -28 200 -7 155 11 156 26 1z m-278 -644 c-5 -5 -15 -6 -21 -2 -14 9
-6 115 13 180 11 38 12 34 15 -64 1 -57 -2 -109 -7 -114z m279 103 c0 -74 -3
-90 -15 -90 -25 0 -32 36 -22 111 7 47 14 69 23 69 11 0 14 -21 14 -90z m-380
-463 c104 -53 183 -103 275 -174 112 -88 96 -91 -22 -5 -96 70 -273 178 -343
209 -14 7 -18 12 -10 12 8 0 53 -19 100 -42z m238 -1 c37 -13 101 -39 142 -58
139 -66 170 -77 230 -84 33 -4 60 -11 60 -16 0 -6 -16 -8 -37 -5 -82 11 -163
38 -270 91 -62 31 -118 56 -125 56 -18 1 -96 39 -80 40 7 0 43 -11 80 -24z
m-204 -84 c42 -34 96 -88 121 -120 93 -115 180 -286 188 -368 3 -21 2 -30 0
-19 -3 11 -8 25 -13 30 -4 6 -10 24 -14 40 -10 42 -70 157 -127 241 -26 39
-96 117 -156 174 -118 112 -118 120 1 22z" id="node1" class="node" stroke-width="20"></path>
</g>
<g transform="translate(0.000000,300.000000) scale(0.100000,-0.100000)" fill="#9D9D9D" stroke="none">





<path style="position: relative;" d="M1360 1567 c70 -31 247 -139 343 -209 118 -86 134 -83 22 5 -121 94
-335 218 -375 216 -8 0 -4 -5 10 -12z" id="node7" class="node" stroke-width="20"></path>
<path style="position: relative;" d="M1635 1540 c22 -11 46 -19 53 -20 7 0 63 -25 125 -56 107 -53 188
-80 270 -91 21 -3 37 -1 37 5 0 5 -27 12 -60 16 -60 7 -91 18 -230 84 -81 38
-202 82 -222 82 -7 -1 5 -9 27 -20z" id="node8" class="node" stroke-width="20"></path>
<path style="position: relative;" d="M1483 1430 c60 -57 130 -135 156 -174 57 -84 117 -199 127 -241 4
-16 10 -34 14 -40 5 -5 10 -19 13 -30 2 -11 3 -2 0 19 -8 82 -95 253 -188 368
-40 52 -171 168 -214 192 -9 5 33 -37 92 -94z" id="node9" class="node" stroke-width="20"></path>
</g>
</svg>