<!--?xml version="1.0" standalone="no"?-->

<svg xmlns="http://www.w3.org/2000/svg" width="276.000000pt" height="300.000000pt" viewBox="0 0 276.000000 300.000000" preserveAspectRatio="xMidYMid meet">
<g transform="translate(0.000000,300.000000) scale(0.100000,-0.100000)" fill="#090909" stroke="none">
<path style="position: relative;" d="M1563 2805 c-46 -32 -55 -84 -103 -591 -15 -166 -33 -311 -40 -323
-17 -33 -51 -23 -72 19 -10 20 -29 101 -42 180 -14 80 -31 177 -40 215 -57
266 -71 311 -103 347 -21 23 -74 23 -103 0 -28 -23 -28 -64 -1 -234 11 -68 23
-150 26 -183 6 -52 53 -340 70 -430 8 -42 -40 -249 -66 -288 -28 -41 -59 -66
-81 -67 -48 0 -84 33 -151 142 -97 155 -193 225 -340 251 -85 14 -121 -2 -125
-56 -3 -33 1 -42 35 -70 21 -18 76 -69 123 -114 92 -88 137 -162 199 -326 34
-91 71 -145 195 -285 113 -129 170 -209 197 -281 20 -53 21 -72 20 -318 l-2
-263 350 0 351 0 -5 28 c-6 39 -30 437 -30 502 0 61 19 113 74 199 53 85 86
167 114 281 30 124 32 137 51 300 l15 125 102 220 c168 366 182 398 187 441
10 88 -45 113 -105 47 -19 -21 -83 -132 -142 -246 -111 -216 -146 -267 -179
-267 -49 0 -48 12 23 367 95 477 96 513 11 513 -28 0 -48 -6 -58 -17 -21 -24
-46 -111 -113 -383 -63 -258 -81 -318 -103 -342 -21 -25 -49 -22 -63 5 -18 33
-13 217 11 392 11 83 23 222 26 310 6 154 6 161 -15 188 -25 31 -64 36 -98 12z
m-127 -1449 l56 -38 22 21 c31 29 106 61 145 61 52 0 118 -37 148 -81 22 -33
25 -46 20 -89 -3 -27 -13 -64 -23 -82 -9 -18 -84 -100 -167 -183 l-150 -150
-143 142 c-135 134 -175 186 -195 257 -27 93 72 191 183 183 34 -3 64 -15 104
-41z" id="node1" class="node"></path>
</g>
<g transform="translate(0.000000,300.000000) scale(0.100000,-0.100000)" fill="#A3A3A3" stroke="none">

<path style="position: relative;" d="M1250 1385 c-77 -35 -120 -107 -101 -171 20 -71 60 -123 195 -257
l143 -142 150 150 c83 83 158 165 167 183 10 18 20 55 23 82 5 43 2 56 -20 89
-30 44 -96 81 -148 81 -39 0 -114 -32 -145 -61 l-22 -21 -56 38 c-66 44 -130
54 -186 29z" id="node3" class="node"></path>
</g>
</svg>